# xmcd
# Track frame offsets:
# 150
# 20896
# 37517
# 60654
# 78888
# 100638
# 115281
# 130674
# 157486
# 178636
# 194939
# 213360
# 227910
# 245019
# 265850
#
# Disc length: 3634 seconds
# Revision: 0
# Processed by: cddbd v1.5.2PL0 Copyright (c) Steve Scherf et al.
# Submitted via: VisiTrax 2.10.2.252 - For more info visit www.synapsa.com
#
DISCID=d20e300f
DTITLE=Black Label Blues Band - Classics
DYEAR=2003
DGENRE=Blues
TTITLE0=If you be my baby
TTITLE1=My heart beat like a hammer
TTITLE2=Third Degree
TTITLE3=Watch out
TTITLE4=Suger mama
TTITLE5=I´ll go crazy
TTITLE6=I wanna be loved
TTITLE7=Stromy monday
TTITLE8=Help me
TTITLE9=I can´t hold out
TTITLE10=Born under a bad sign
TTITLE11=Everday I have the blues
TTITLE12=Rollin´man
TTITLE13=Copenhagen blues
TTITLE14=Blue
EXTD=
EXTT0=
EXTT1=
EXTT2=
EXTT3=
EXTT4=
EXTT5=
EXTT6=
EXTT7=
EXTT8=
EXTT9=
EXTT10=
EXTT11=
EXTT12=
EXTT13=
EXTT14=
PLAYORDER=
